<svg viewBox="0 0 12.166 11.777" width="13" height="13" xmlns="http://www.w3.org/2000/svg" ><g transform="translate(-189 -245)"><path fill="#e6e6e6" stroke-width="1.5px" d="M6.7.341,8.074,3.168a.627.627,0,0,0,.483.36l3.074.463a.659.659,0,0,1,.356,1.131L9.776,7.305A.626.626,0,0,0,9.6,7.9l.533,3.084a.65.65,0,0,1-.94.694L6.448,10.209a.641.641,0,0,0-.61,0L3.069,11.674a.646.646,0,0,1-.94-.694L2.662,7.9a.721.721,0,0,0-.178-.591L.224,5.121A.666.666,0,0,1,.579,3.99l3.074-.463a.59.59,0,0,0,.483-.36L5.508.341A.67.67,0,0,1,6.7.341Z" transform="translate(188.973 245.025)"></path></g></svg>