<svg xmlns="http://www.w3.org/2000/svg"><symbol id="plyr-airplay" viewBox="0 0 44 44"><path fill="currentColor" d="M22.71 24.22a1 1 0 00-1.42 0l-4.07 4.07a1 1 0 00.71 1.71h8.14a1 1 0 00.71-1.71l-4.07-4.07zM28 14H16a2 2 0 00-2 2v8.11a2 2 0 002 2h.7a1 1 0 000-2H16V16h12v8.11h-.73a1 1 0 000 2H28a2 2 0 002-2V16a2 2 0 00-2-2z" stroke="inherit" stroke-width="8" stroke-opacity=".25"/></symbol><symbol id="plyr-captions-off" viewBox="0 0 44 44"><path opacity=".5" fill="currentColor" d="M30 14H14a1 1 0 00-1 1v10.11a1 1 0 001 1h5.25l1.94 2.5a1 1 0 001.58 0l1.94-2.5H30a1 1 0 001-1V15a1 1 0 00-1-1zm-8.57 8.147a.71.71 0 01-.1.163 3.51 3.51 0 01-2.77 1.36 3.62 3.62 0 010-7.23 3.54 3.54 0 012.77 1.36.72.72 0 01-.26 1.11.77.77 0 01-.91-.25 2.05 2.05 0 00-1.6-.78 2.18 2.18 0 100 4.36 2.06 2.06 0 001.6-.79.76.76 0 01.91-.24.71.71 0 01.36.937zm7.51 0a.71.71 0 01-.1.163 3.51 3.51 0 01-2.77 1.36 3.62 3.62 0 010-7.23 3.54 3.54 0 012.77 1.36.72.72 0 01-.26 1.11.78.78 0 01-.92-.25 2 2 0 00-1.59-.78 2.18 2.18 0 100 4.36 2 2 0 001.59-.79.78.78 0 01.92-.24.71.71 0 01.36.937z" stroke="inherit" stroke-opacity=".25" stroke-width="8"/></symbol><symbol id="plyr-download" viewBox="0 0 44 44"><path fill="currentColor" d="M21.29 25.7c.095.093.207.168.33.22.245.093.515.093.76 0 .123-.052.235-.127.33-.22l5-5a1 1 0 00-1.41-1.41L23 22.58V15a1 1 0 10-2 0v7.58l-3.29-3.29a1 1 0 00-1.41 1.41l4.99 5zM29 28H15a1 1 0 100 2h14a1 1 0 100-2z" stroke="inherit" stroke-opacity=".25" stroke-width="8"/></symbol><symbol id="plyr-captions-on" viewBox="0 0 44 44"><path d="M30 14H14a1 1 0 00-1 1v10.11a1 1 0 001 1h5.25l1.94 2.5a1 1 0 001.58 0l1.94-2.5H30a1 1 0 001-1V15a1 1 0 00-1-1zm-11.44 8.24a2.06 2.06 0 001.6-.79.76.76 0 01.91-.24.71.71 0 01.26 1.1 3.51 3.51 0 01-2.77 1.36 3.62 3.62 0 010-7.23 3.54 3.54 0 012.77 1.36.72.72 0 01-.26 1.11.77.77 0 01-.91-.25 2.05 2.05 0 00-1.6-.78 2.18 2.18 0 000 4.36zm10.28.07a3.51 3.51 0 01-2.77 1.36 3.62 3.62 0 010-7.23 3.54 3.54 0 012.77 1.36.72.72 0 01-.26 1.11.78.78 0 01-.92-.25 2 2 0 00-1.59-.78 2.18 2.18 0 000 4.36 2 2 0 001.59-.79.78.78 0 01.92-.24.71.71 0 01.26 1.1z" stroke="inherit" stroke-opacity=".25" stroke-width="8"/></symbol><symbol id="plyr-enter-fullscreen" viewBox="0 0 44 44"><path fill="currentColor" d="M19 14h-4a1 1 0 00-1 1v4a1 1 0 102 0v-3h3a1 1 0 100-2zm0 14h-3v-3a1 1 0 10-2 0v4a1 1 0 001 1h4a1 1 0 100-2zm10-4a1 1 0 00-1 1v3h-3a1 1 0 100 2h4a1 1 0 001-1v-4a1 1 0 00-1-1zm0-10h-4a1 1 0 100 2h3v3a1 1 0 102 0v-4a1 1 0 00-1-1z" stroke="inherit" stroke-opacity=".25" stroke-width="8"/></symbol><symbol id="plyr-exit-fullscreen" viewBox="0 0 44 44"><g fill="currentColor" stroke="inherit" stroke-opacity=".25" stroke-width="8"><path d="M25 20h4a1 1 0 100-2h-3v-3a1 1 0 10-2 0v4a1 1 0 001 1zM19 24h-4a1 1 0 100 2h3v3a1 1 0 102 0v-4a1 1 0 00-1-1zM29 24h-4a1 1 0 00-1 1v4a1 1 0 102 0v-3h3a1 1 0 100-2zM19 14a1 1 0 00-1 1v3h-3a1 1 0 100 2h4a1 1 0 001-1v-4a1 1 0 00-1-1z"/></g></symbol><symbol id="plyr-fast-forward" viewBox="0 0 44 44"><path fill="currentColor" d="M30.842 21.352a1.004 1.004 0 00-.132-.132l-8-6.69a1 1 0 00-1.59.77V20l-6.58-5.47a1 1 0 00-1.6.78V28.7a1 1 0 001.6.78L21.12 24v4.68a1 1 0 001.59.77l8-6.69a1 1 0 00.132-1.408z" stroke="inherit" stroke-opacity=".25" stroke-width="8"/></symbol><symbol id="plyr-muted" viewBox="0 0 44 44"><path fill="currentColor" d="M30.84 29.43l-2.15-2.15A8.78 8.78 0 0030.43 22a8.61 8.61 0 00-4.57-7.73.86.86 0 00-1.15.38.88.88 0 00.38 1.17A6.87 6.87 0 0128.73 22a7.06 7.06 0 01-1.27 4.06l-1.33-1.34a5.24 5.24 0 00-.94-6.58.83.83 0 00-1.2.07.88.88 0 00.07 1.22 3.49 3.49 0 01.81 4l-2.8-2.8v-4.71a.85.85 0 00-1.38-.68l-2.22 1.82-3.9-3.9a1 1 0 00-1.41 1.41l16.27 16.27a1 1 0 001.41-1.41zm-17.27-9.17v3.48a1.73 1.73 0 001.7 1.74h1.4l4 3.28a.85.85 0 001.38-.68v-1.79l-7.55-7.57c-.572.3-.93.894-.93 1.54z" stroke="inherit" stroke-opacity=".25" stroke-width="8"/></symbol><symbol id="plyr-pause" viewBox="0 0 44 44"><path fill="currentColor" d="M17.5 14a2 2 0 00-2 2v12a2 2 0 104 0V16a2 2 0 00-2-2zm9 0a2 2 0 00-2 2v12a2 2 0 104 0V16a2 2 0 00-2-2z" stroke="inherit" stroke-opacity=".25" stroke-width="8"/></symbol><symbol id="plyr-pip" viewBox="0 0 44 44"><path fill="currentColor" d="M27 23a1 1 0 00-1 1v4H16V18h4a1 1 0 100-2h-5a1 1 0 00-1 1v12a1 1 0 001 1h12a1 1 0 001-1v-5a1 1 0 00-1-1zm2.101-9a1.007 1.007 0 00-.211 0l-3.48.4a1 1 0 00-.59 1.7l.83.83-5.34 5.34a1 1 0 000 1.41 1 1 0 001.41 0l5.34-5.34.83.83a1 1 0 001.7-.59l.4-3.48a1 1 0 00-.889-1.1z" stroke="inherit" stroke-opacity=".25" stroke-width="8"/></symbol><symbol id="plyr-play" viewBox="0 0 43 44"><path fill="currentColor" d="M27.906 21.01a.998.998 0 00-.256-.24l-10.24-6.54a1 1 0 00-1.52.84v13.86a1 1 0 001.56.81l10.25-7.33a1 1 0 00.206-1.4z" stroke="inherit" stroke-opacity=".25" stroke-width="8"/></symbol><symbol id="plyr-restart" viewBox="0 0 44 44"><path fill="currentColor" d="M28.44 17.25l1-1a1 1 0 00-.6-1.7l-3.47-.4a1 1 0 00-1.11 1.11l.4 3.47a1 1 0 001.7.59l.68-.68A6 6 0 1121 16.05a1 1 0 00-.341-1.972l-.009.002A8 8 0 1030 22a7.87 7.87 0 00-1.56-4.75z" stroke="inherit" stroke-opacity=".25" stroke-width="8"/></symbol><symbol id="plyr-rewind" viewBox="0 0 44 44"><path fill="currentColor" d="M30.04 14.32a1 1 0 00-.58.2L22.88 20v-4.69a1 1 0 00-1.59-.77l-8 6.69a1 1 0 000 1.54l8 6.69a1 1 0 001.59-.77V24l6.58 5.47a1 1 0 001.6-.78V15.3a1 1 0 00-1.02-.98z" stroke="inherit" stroke-opacity=".25" stroke-width="8"/></symbol><symbol id="plyr-settings" viewBox="0 0 44 44"><path fill="currentColor" d="M29.14 20.78a2 2 0 01-1.24-3 1 1 0 00-.09-1.32l-.31-.31a1 1 0 00-1.31-.09 2 2 0 01-3-1.23 1 1 0 00-1-.87h-.44a1 1 0 00-1 .87 2 2 0 01-3 1.23 1 1 0 00-1.32.09l-.31.31a1 1 0 00-.09 1.32 2 2 0 01-1.23 3 1 1 0 00-.87 1v.44a1 1 0 00.87 1 2 2 0 011.23 3 1 1 0 00.09 1.31l.31.31a1 1 0 001.32.09 2 2 0 013 1.24 1 1 0 001 .86h.44a1 1 0 001-.86 2 2 0 013-1.24 1 1 0 001.31-.09l.31-.31a1 1 0 00.09-1.31 2 2 0 011.24-3 1 1 0 00.86-1v-.44a1 1 0 00-.86-1zM22 25a3 3 0 110-6 3 3 0 010 6z" stroke="inherit" stroke-opacity=".25" stroke-width="8"/></symbol><symbol id="plyr-volume" viewBox="0 0 44 44"><path fill="currentColor" d="M25.2 25.86A5.14 5.14 0 0026.89 22a5.14 5.14 0 00-1.7-3.86.83.83 0 00-1.2.07.88.88 0 00.07 1.22 3.49 3.49 0 010 5.14.88.88 0 00-.06 1.22.83.83 0 001.2.07zm-3.964-10.805a.85.85 0 00-.546.185l-4 3.28h-1.4a1.73 1.73 0 00-1.7 1.74v3.48a1.73 1.73 0 001.7 1.74h1.4l4 3.28a.85.85 0 001.38-.68V15.92a.85.85 0 00-.834-.865zm4.624-.785a.86.86 0 00-1.15.38.88.88 0 00.38 1.17A6.87 6.87 0 0128.73 22a6.87 6.87 0 01-3.64 6.18.88.88 0 00-.38 1.17.85.85 0 001.139.386l.011-.006A8.62 8.62 0 0030.43 22a8.61 8.61 0 00-4.57-7.73z" stroke="inherit" stroke-opacity=".25" stroke-width="8"/></symbol></svg>