<svg enable-background="new 0 0 2641.465 318.75" version="1.1" viewBox="0 0 2641.465 318.75" xml:space="preserve" xmlns="http://www.w3.org/2000/svg"> <path d="m1742.1 193.97c-8.155 0.553-8.818 14.018-1.059 15.756 7.902 1.975 16.151 0.774 24.195 1.027 268.66-0.016 537.31-0.016 805.97 0 7.68-0.19 15.487 0.758 23.057-0.759 3.856-0.743 6.542-4.551 6.495-8.344-0.095-5.547-5.452-8.613-10.541-8.107-272.88 0.047-545.77 0-818.66 0.031-9.798 0.254-19.675-0.726-29.457 0.396z" enable-background="new"></path> <path d="m899.39 193.97c8.155 0.553 8.818 14.018 1.059 15.756-7.902 1.975-16.151 0.774-24.195 1.027-268.66-0.016-537.31-0.016-805.97 0-7.68-0.19-15.487 0.758-23.057-0.759-3.856-0.743-6.542-4.551-6.495-8.344 0.095-5.547 5.452-8.613 10.541-8.107 272.88 0.047 545.77 0 818.66 0.031 9.798 0.254 19.675-0.726 29.457 0.396z" enable-background="new    "></path> <path d="m1686 201.38c-0.743 12.169 12.943 22.757 24.448 17.969 9.166-2.845 14.35-13.117 11.805-22.251-1.849-7.017-8.233-12.88-15.614-13.275-10.383-1.818-20.718 7.048-20.639 17.557zm27.735-2.386c2.781 6.4-4.488 14.176-11.141 12.564-4.488-0.996-8.076-5.373-7.933-10.003 0.458-4.757 4.536-8.676 9.071-9.592 4.329 0.03 8.581 2.89 10.003 7.031z" enable-background="new"></path> <path d="m955.45 201.38c0.743 12.169-12.943 22.757-24.448 17.969-9.166-2.845-14.35-13.117-11.805-22.251 1.849-7.017 8.233-12.88 15.614-13.275 10.383-1.818 20.718 7.048 20.639 17.557zm-27.735-2.386c-2.781 6.4 4.488 14.176 11.141 12.564 4.488-0.996 8.076-5.373 7.933-10.003-0.458-4.757-4.536-8.676-9.071-9.592-4.329 0.03-8.581 2.89-10.003 7.031z" enable-background="new"></path> <path d="m1320.7 237.4c4.371-0.255 8.733-0.635 13.076-1.14 48.453-4.931 94.441-23.974 135.8-49.085 20.544-12.248 38.845-27.845 59.326-40.204 20.323-12.406 43.127-22.077 67.212-22.82 26.044 0.49 51.298 16.056 63.213 39.255 9.071 17.463 9.925 38.371 4.804 57.161-3.003 11.695-8.36 23.184-17.399 31.433-8.518 7.743-20.228 11.426-31.654 11.015-15.456 0.442-32.223-5.705-40.694-19.264-9.751-15.092-5.784-38.276 10.193-47.489 11.22-6.653 25.349-4.757 36.632 0.695 5.484 2.544 6.795 9.055 10.857 13.085 1.264-4.156 2.876-8.55 1.596-12.864-1.849-6.827-7.286-12.137-13.417-15.361-9.466-5.184-20.876-5.816-31.259-3.414-14.681 3.572-26.455 16.325-29.236 31.117-1.896 10.92-0.616 22.709 5.294 32.27 7.886 13.702 23.531 21.461 38.908 22.773 11.173 0.268 22.725 1.011 33.408-2.971 16.246-5.373 29.015-19.027 34.578-35.052 6.306-18.3 6.59-38.702 0.379-57.066-7.791-23.231-27.214-41.673-50.223-49.686-12.089-4.788-25.396-4.425-38.133-3.366-30.643 4.694-57.619 21.477-82.019 39.73-15.329 11.726-30.991 23.073-47.694 32.823-40.599 23.794-86.317 41.083-133.54 43.728-47.228-2.644-92.947-19.933-133.54-43.728-16.704-9.751-32.365-21.098-47.694-32.823-24.4-18.253-51.376-35.036-82.019-39.73-12.738-1.059-26.044-1.422-38.134 3.366-23.01 8.012-42.432 26.455-50.223 49.686-6.211 18.364-5.926 38.766 0.379 57.066 5.563 16.025 18.332 29.679 34.578 35.052 10.683 3.983 22.235 3.24 33.408 2.971 15.377-1.312 31.022-9.071 38.908-22.773 5.91-9.561 7.191-21.35 5.294-32.27-2.781-14.792-14.555-27.545-29.236-31.117-10.383-2.402-21.793-1.77-31.259 3.414-6.132 3.224-11.568 8.534-13.417 15.361-1.28 4.314 0.332 8.708 1.596 12.864 4.062-4.03 5.373-10.541 10.857-13.085 11.284-5.452 25.412-7.348 36.632-0.695 15.977 9.213 19.944 32.397 10.193 47.489-8.471 13.559-25.238 19.706-40.694 19.264-11.426 0.411-23.136-3.272-31.654-11.015-9.039-8.249-14.397-19.738-17.399-31.433-5.12-18.79-4.267-39.698 4.804-57.161 11.916-23.199 37.169-38.766 63.213-39.255 24.084 0.743 46.889 10.414 67.212 22.82 20.481 12.358 38.782 27.956 59.326 40.204 41.357 25.111 87.345 44.154 135.8 49.085 4.343 0.505 8.704 0.885 13.075 1.14zm0-16.381c23.825-0.755 48.012-9.056 64.959-26.211 14.539-15.14 24.495-34.23 40.441-48.09 8.076-7.601 17.716-13.101 26.834-19.264-9.751-0.901-19.296-3.461-29.094-3.998-14.871-0.158-30.295 0.427-44.012 6.827-20.339 9.15-34.847 27.419-55.201 36.506-1.296 0.53-2.605 1.027-3.926 1.493-1.321-0.466-2.63-0.964-3.926-1.493-20.355-9.087-34.862-27.355-55.201-36.506-13.717-6.401-29.141-6.985-44.012-6.827-9.798 0.537-19.343 3.097-29.094 3.998 9.119 6.163 18.758 11.663 26.834 19.264 15.945 13.859 25.901 32.95 40.441 48.09 16.945 17.155 41.132 25.455 64.957 26.211zm0-42.074c6.04-1.938 11.825-4.583 17.09-8.174 18.158-11.6 31.038-30.516 51.361-38.813 18.174-6.716 38.228-7.933 56.987-2.908-13.259 8.455-26.186 17.668-36.996 29.189-14.745 15.772-28.035 34.372-48.564 43.112-12.601 5.464-26.157 8.587-39.879 9.44-13.721-0.853-27.278-3.975-39.879-9.44-20.529-8.739-33.819-27.34-48.564-43.112-10.81-11.521-23.737-20.734-36.996-29.189 18.759-5.025 38.813-3.809 56.987 2.908 20.323 8.297 33.203 27.213 51.361 38.813 5.267 3.592 11.053 6.237 17.092 8.174zm0-16.967c11.662-8.17 20.736-20.059 25.671-33.433 7.286-19.659 6.416-43.839-7.269-60.558-4.911-6.165-11.296-10.88-18.402-14.036-7.106 3.156-13.491 7.87-18.402 14.036-13.686 16.72-14.555 40.899-7.269 60.558 4.936 13.373 14.009 25.263 25.671 33.433zm0-104.06c8.436 4.271 15.62 10.925 19.982 19.437 6.084 10.73 6.701 23.5 5.405 35.51-2.426 16.99-11.841 32.882-25.387 43.352-13.546-10.47-22.961-26.362-25.387-43.352-1.296-12.01-0.679-24.78 5.405-35.51 4.362-8.512 11.546-15.166 19.982-19.437z" enable-background="new"></path> <path d="m1529.3 230.48c-3.145-7.617-10.588-12.152-17.304-16.277-21.745-12.437-48.532-12.011-71.921-4.789-12.532 4.03-25.175 8.803-35.684 16.957 31.212-0.806 59.263 14.681 89.178 20.892 9.166 1.691 18.948 1.422 27.624-2.149 5.579-2.197 10.509-8.502 8.107-14.634zm-33.582 7.57c-26.692-4.804-52.531-15.74-80.044-14.95 17.225-6.543 35.605-10.841 54.095-10.636 18.648 0.727 38.671 6.669 50.792 21.682-7.38 4.552-16.42 5.216-24.843 3.904z" enable-background="new"></path> <path d="m1112.2 230.48c3.145-7.617 10.588-12.152 17.304-16.277 21.745-12.437 48.532-12.011 71.921-4.789 12.532 4.03 25.175 8.803 35.684 16.957-31.212-0.806-59.263 14.681-89.178 20.892-9.166 1.691-18.948 1.422-27.624-2.149-5.579-2.197-10.51-8.502-8.107-14.634zm33.582 7.57c26.692-4.804 52.531-15.74 80.044-14.95-17.225-6.543-35.605-10.841-54.095-10.636-18.648 0.727-38.671 6.669-50.792 21.682 7.38 4.552 16.419 5.216 24.843 3.904z" enable-background="new"></path></svg>
