<svg xmlns="http://www.w3.org/2000/svg" width="110" height="33" viewBox="0 0 110 33">
  <metadata><?xpacket begin="﻿" id="W5M0MpCehiHzreSzNTczkc9d"?>
<x:xmpmeta xmlns:x="adobe:ns:meta/" x:xmptk="Adobe XMP Core 5.6-c145 79.163499, 2018/08/13-16:40:22        ">
   <rdf:RDF xmlns:rdf="http://www.w3.org/1999/02/22-rdf-syntax-ns#">
      <rdf:Description rdf:about=""
            xmlns:xmp="http://ns.adobe.com/xap/1.0/">
         <xmp:CreatorTool>Adobe Photoshop 21.0 (Macintosh)</xmp:CreatorTool>
      </rdf:Description>
   </rdf:RDF>
</x:xmpmeta>
                                                                                                    
                                                                                                    
                                                                                                    
                                                                                                    
                                                                                                    
                                                                                                    
                                                                                                    
                                                                                                    
                                                                                                    
                                                                                                    
                                                                                                    
                                                                                                    
                                                                                                    
                                                                                                    
                                                                                                    
                                                                                                    
                                                                                                    
                                                                                                    
                                                                                                    
                                                                                                    
                           
<?xpacket end="w"?></metadata>
<defs>
    <style>
      .cls-1 {
        fill: #222;
        fill-rule: evenodd;
      }
    </style>
  </defs>
  <path id="kalles" class="cls-1" d="M24.039,31.6l-9.2-11.16,9-11.16H15.8l-6.68,8.96V2H2.278V31.6h6.84v-9.48L15.8,31.6h8.24ZM31.315,9a9.039,9.039,0,0,0-4.94,1.38,9.461,9.461,0,0,0-3.44,3.96,13.763,13.763,0,0,0-1.26,6.1,13.793,13.793,0,0,0,1.26,6.08,9.436,9.436,0,0,0,3.44,3.98,9.039,9.039,0,0,0,4.94,1.38,8.079,8.079,0,0,0,4.4-1.16,6.975,6.975,0,0,0,2.72-3.16V31.6h6.8V9.276h-6.8v4.04a6.98,6.98,0,0,0-2.72-3.16A8.083,8.083,0,0,0,31.315,9h0Zm2.2,6a4.656,4.656,0,0,1,3.54,1.46,5.559,5.559,0,0,1,1.38,3.98,5.573,5.573,0,0,1-1.38,3.96,4.624,4.624,0,0,1-3.54,1.48,4.607,4.607,0,0,1-3.54-1.44,5.643,5.643,0,0,1-1.34-4,5.644,5.644,0,0,1,1.34-4A4.607,4.607,0,0,1,33.515,15h0Zm14.1-13V31.6h6.84V2h-6.84Zm9.772,0V31.6h6.84V2h-6.84Zm31.032,17.84a11.371,11.371,0,0,0-1.38-5.66,9.609,9.609,0,0,0-3.9-3.82,13.132,13.132,0,0,0-11.68.02,9.727,9.727,0,0,0-3.98,3.96,12.459,12.459,0,0,0-1.42,6.1,12.349,12.349,0,0,0,1.44,6.08,9.855,9.855,0,0,0,3.98,3.98,12.841,12.841,0,0,0,10.9.32,10.231,10.231,0,0,0,3.76-2.92,9.468,9.468,0,0,0,1.92-4.22h-7.24a3.552,3.552,0,0,1-1.32,1.96,4.046,4.046,0,0,1-2.52.76,4.126,4.126,0,0,1-2.96-1.1,5.171,5.171,0,0,1-1.28-3.62h15.48a9.45,9.45,0,0,0,.2-1.84h0ZM81.5,18.8h-8.72a4.686,4.686,0,0,1,1.4-3.28A4.479,4.479,0,0,1,77.3,14.4a4.345,4.345,0,0,1,3.02,1.1,4.115,4.115,0,0,1,1.18,3.3h0ZM97.879,9a9.934,9.934,0,0,0-6.44,1.86,5.973,5.973,0,0,0-2.28,4.86,5.4,5.4,0,0,0,1.16,3.66,6.729,6.729,0,0,0,2.76,1.94,28.543,28.543,0,0,0,4.08,1.12,20.257,20.257,0,0,1,3.579,1.06,1.707,1.707,0,0,1,1.1,1.66,1.819,1.819,0,0,1-.6,1.42,2.549,2.549,0,0,1-1.76.54,4.591,4.591,0,0,1-2.74-.76,2.967,2.967,0,0,1-1.22-2.2h-6.6a8.437,8.437,0,0,0,3.32,5.72,11.945,11.945,0,0,0,7.24,2,11.719,11.719,0,0,0,4.639-.84,6.843,6.843,0,0,0,3-2.32,5.761,5.761,0,0,0,1.04-3.4,5.583,5.583,0,0,0-1.2-3.76,6.929,6.929,0,0,0-2.84-2.02,34.363,34.363,0,0,0-4.2-1.22,17.491,17.491,0,0,1-3.46-1.04,1.665,1.665,0,0,1-1.1-1.56,1.746,1.746,0,0,1,.6-1.42,2.689,2.689,0,0,1,1.76-.5,3.826,3.826,0,0,1,2.459.78,3.54,3.54,0,0,1,1.26,2.14h6.4a9.206,9.206,0,0,0-3.18-5.6A10.24,10.24,0,0,0,97.879,9h0Z"/>
</svg>
